<?xml version="1.0" encoding="UTF-8"?>
<svg version="1.1" xmlns="http://www.w3.org/2000/svg" width="40" height="40">
<path d="M0 0 C0.97646484 -0.01998047 1.95292969 -0.03996094 2.95898438 -0.06054688 C8.80164696 -0.05658575 12.56744429 0.32230816 17.0625 4.4375 C21.16268707 9.02312148 20.54211996 14.55095853 20.5 20.375 C20.5299707 21.83969727 20.5299707 21.83969727 20.56054688 23.33398438 C20.55658575 29.17664696 20.17769184 32.94244429 16.0625 37.4375 C11.47687852 41.53768707 5.94904147 40.91711996 0.125 40.875 C-0.85146484 40.89498047 -1.82792969 40.91496094 -2.83398438 40.93554688 C-8.67664696 40.93158575 -12.44244429 40.55269184 -16.9375 36.4375 C-21.03768707 31.85187852 -20.41711996 26.32404147 -20.375 20.5 C-20.39498047 19.52353516 -20.41496094 18.54707031 -20.43554688 17.54101562 C-20.43158575 11.69835304 -20.05269184 7.93255571 -15.9375 3.4375 C-11.35187852 -0.66268707 -5.82404147 -0.04211996 0 0 Z M-15.9375 7.4375 C-17.86557685 11.29365369 -17.20939373 16.00799833 -17.25 20.25 C-17.27900391 21.24837891 -17.30800781 22.24675781 -17.33789062 23.27539062 C-17.40702885 29.22030427 -17.40702885 29.22030427 -15.04296875 34.57421875 C-10.76121865 38.36344843 -6.60166185 37.62114048 -1.125 37.625 C0.22948242 37.64336914 0.22948242 37.64336914 1.61132812 37.66210938 C8.10465537 37.74985489 8.10465537 37.74985489 14.0625 35.4375 C18.19686553 30.88452838 17.54185648 26.36371268 17.5 20.5 C17.51998047 19.51064453 17.53996094 18.52128906 17.56054688 17.50195312 C17.55750921 12.98494906 17.54403772 10.22951583 15.16015625 6.30859375 C10.71660585 2.34497989 5.95169401 3.17957907 0.25 3.125 C-0.74837891 3.09599609 -1.74675781 3.06699219 -2.77539062 3.03710938 C-8.39199007 2.98846461 -11.98088823 2.96661165 -15.9375 7.4375 Z " fill="#000000" transform="translate(19.9375,-0.4375)"/>
<path d="M0 0 C2.8100346 1.79363911 4.50940468 3.01880935 6 6 C6.5811138 13.08958838 6.5811138 13.08958838 4.125 16.9375 C0.8698054 20.09695358 -1.42413238 20.33421243 -5.9609375 20.29296875 C-9.13134567 19.83745033 -10.8192402 18.24684343 -13 16 C-14.60086627 12.79826746 -14.49917089 9.47422941 -14 6 C-10.32759145 0.24655994 -6.71744997 -0.96515086 0 0 Z M-10 4 C-11.63102777 7.26205554 -11.51981506 10.43555389 -11 14 C-10.16666667 16.16666667 -10.16666667 16.16666667 -8 17 C-4.43555389 17.51981506 -1.26205554 17.63102777 2 16 C3.63102777 12.73794446 3.51981506 9.56444611 3 6 C2.16666667 3.83333333 2.16666667 3.83333333 0 3 C-3.56444611 2.48018494 -6.73794446 2.36897223 -10 4 Z " fill="#000000" transform="translate(24,10)"/>
<path d="M0 0 C1.98 0.495 1.98 0.495 4 1 C3.67 2.32 3.34 3.64 3 5 C1.68 4.34 0.36 3.68 -1 3 C-0.67 2.01 -0.34 1.02 0 0 Z " fill="#000000" transform="translate(29,7)"/>
</svg>
